<svg width="168" height="40" viewBox="0 0 168 40" fill="none" xmlns="http://www.w3.org/2000/svg">
<path d="M164.13 24.1578C164.027 24.6805 163.848 25.1368 163.595 25.5286C163.342 25.9206 163.011 26.2397 162.601 26.4819C162.192 26.7261 161.682 26.8486 161.072 26.8486C160.479 26.8486 159.974 26.7261 159.556 26.4819C159.137 26.2397 158.802 25.9206 158.549 25.5286C158.298 25.1368 158.114 24.6805 158 24.1578C157.887 23.6362 157.83 23.1043 157.83 22.5662C157.83 22.007 157.884 21.4676 157.988 20.9463C158.092 20.4238 158.271 19.9627 158.524 19.5602C158.776 19.1608 159.108 18.8345 159.517 18.5826C159.925 18.3301 160.435 18.2022 161.046 18.2022C161.639 18.2022 162.139 18.3301 162.548 18.5826C162.959 18.8345 163.293 19.1643 163.555 19.574C163.818 19.9836 164.005 20.4499 164.118 20.9715C164.232 21.4943 164.288 22.0258 164.288 22.5662C164.288 23.1043 164.235 23.6363 164.13 24.1579L164.13 24.1578ZM167.634 19.9135C167.389 19.0351 167.015 18.2642 166.509 17.6023C166.004 16.941 165.369 16.4093 164.602 16.0095C163.834 15.6083 162.919 15.4091 161.856 15.4091C161.02 15.4091 160.253 15.5737 159.556 15.9046C158.859 16.2357 158.284 16.7668 157.831 17.4982H157.78V15.7737H154.25V34.0051H157.961V27.6063H158.014C158.467 28.2685 159.047 28.7683 159.752 29.1069C160.458 29.4464 161.23 29.6172 162.066 29.6172C163.059 29.6172 163.926 29.4242 164.667 29.0421C165.407 28.6596 166.027 28.1452 166.523 27.5006C167.02 26.8561 167.389 26.117 167.634 25.2812C167.879 24.445 168 23.5746 168 22.6694C168 21.7118 167.879 20.7937 167.634 19.9136V19.9135ZM149.336 24.1579C149.23 24.6806 149.051 25.1369 148.799 25.5287C148.547 25.9207 148.215 26.2398 147.804 26.482C147.396 26.7262 146.886 26.8487 146.276 26.8487C145.683 26.8487 145.18 26.7262 144.761 26.482C144.342 26.2398 144.007 25.9207 143.754 25.5287C143.501 25.1369 143.319 24.6806 143.205 24.1579C143.091 23.6363 143.036 23.1044 143.036 22.5663C143.036 22.0071 143.087 21.4676 143.191 20.9464C143.297 20.4239 143.475 19.9628 143.728 19.5603C143.979 19.1609 144.311 18.8346 144.722 18.5827C145.131 18.3302 145.639 18.2023 146.25 18.2023C146.842 18.2023 147.345 18.3302 147.753 18.5827C148.163 18.8346 148.499 19.1644 148.76 19.5741C149.021 19.9837 149.208 20.45 149.322 20.9716C149.436 21.4943 149.491 22.0259 149.491 22.5663C149.491 23.1044 149.44 23.6363 149.336 24.1579L149.336 24.1579ZM151.714 17.6025C151.209 16.9412 150.572 16.4095 149.805 16.0097C149.038 15.6085 148.124 15.4093 147.061 15.4093C146.224 15.4093 145.458 15.5739 144.761 15.9048C144.062 16.2359 143.489 16.767 143.036 17.4984H142.983V15.7739H139.453V34.0053H143.167V27.6065H143.217C143.67 28.2687 144.251 28.7685 144.957 29.1071C145.661 29.4466 146.433 29.6174 147.27 29.6174C148.264 29.6174 149.13 29.4244 149.871 29.0423C150.611 28.6598 151.23 28.1454 151.727 27.5008C152.224 26.8563 152.593 26.1172 152.839 25.2814C153.081 24.4452 153.204 23.5748 153.204 22.6696C153.204 21.712 153.081 20.7939 152.839 19.9138C152.593 19.0354 152.219 18.2644 151.714 17.6025V17.6025ZM127.299 22.069L129.73 15.2257H129.782L132.135 22.069H127.299ZM127.691 10.6291L120.633 29.2769H124.764L126.227 25.124H133.207L134.618 29.2769H138.879L131.901 10.6291H127.691ZM120.319 23.3617C120.075 22.9352 119.752 22.5783 119.351 22.2901C118.951 22.0037 118.492 21.7724 117.979 21.5975C117.464 21.4243 116.938 21.2775 116.397 21.1551C115.874 21.0327 115.361 20.9195 114.856 20.8148C114.35 20.7098 113.901 20.5924 113.508 20.4627C113.117 20.3318 112.8 20.1631 112.555 19.9524C112.311 19.744 112.19 19.4746 112.19 19.1432C112.19 18.8646 112.258 18.6429 112.398 18.4771C112.538 18.3125 112.708 18.1859 112.908 18.0979C113.109 18.0115 113.33 17.9553 113.574 17.9283C113.818 17.9026 114.046 17.8903 114.254 17.8903C114.917 17.8903 115.492 18.0162 115.981 18.2685C116.467 18.5211 116.738 19.0043 116.79 19.7177H120.319C120.249 18.8825 120.036 18.1907 119.678 17.6407C119.321 17.0931 118.872 16.6532 118.332 16.3229C117.793 15.9919 117.178 15.7573 116.489 15.6176C115.8 15.4781 115.091 15.4093 114.36 15.4093C113.627 15.4093 112.912 15.4746 112.216 15.6038C111.518 15.7351 110.891 15.9624 110.334 16.2838C109.775 16.6058 109.327 17.0447 108.987 17.6024C108.646 18.1594 108.477 18.8742 108.477 19.7441C108.477 20.3361 108.6 20.8377 108.844 21.2464C109.086 21.6561 109.41 21.9943 109.809 22.2645C110.211 22.5343 110.669 22.7528 111.183 22.917C111.697 23.0841 112.224 23.2267 112.763 23.3491C114.089 23.6281 115.122 23.9057 115.862 24.1853C116.603 24.4633 116.973 24.881 116.973 25.4388C116.973 25.7695 116.895 26.0423 116.738 26.2604C116.581 26.4792 116.385 26.6522 116.15 26.7829C115.913 26.9141 115.652 27.0104 115.366 27.0699C115.078 27.1314 114.803 27.1621 114.542 27.1621C114.176 27.1621 113.823 27.1182 113.484 27.0314C113.143 26.9442 112.843 26.809 112.582 26.6261C112.32 26.4436 112.106 26.209 111.941 25.9209C111.776 25.6334 111.692 25.2909 111.692 24.8894H108.163C108.199 25.7948 108.403 26.5483 108.779 27.1487C109.152 27.7495 109.631 28.2322 110.215 28.5985C110.799 28.9635 111.466 29.2253 112.216 29.3825C112.965 29.5388 113.732 29.6174 114.515 29.6174C115.282 29.6174 116.036 29.5427 116.777 29.396C117.517 29.2475 118.175 28.9905 118.751 28.6242C119.327 28.2592 119.791 27.7761 120.149 27.175C120.506 26.5734 120.684 25.8293 120.684 24.9412C120.684 24.3134 120.562 23.7882 120.319 23.3618L120.319 23.3617ZM104.975 11.7261H101.262V15.7737H99.0151V18.2546H101.262V26.2213C101.262 26.9013 101.377 27.4491 101.603 27.8666C101.829 28.2839 102.138 28.608 102.53 28.8337C102.922 29.0602 103.376 29.212 103.89 29.2904C104.403 29.3682 104.95 29.4077 105.523 29.4077C105.891 29.4077 106.264 29.3983 106.648 29.3826C107.031 29.3647 107.379 29.3308 107.694 29.2771V26.4038C107.519 26.4392 107.336 26.4664 107.144 26.4822C106.953 26.4999 106.752 26.5092 106.543 26.5092C105.916 26.5092 105.497 26.4038 105.288 26.195C105.08 25.9867 104.975 25.5686 104.975 24.9412V18.255H107.694V15.7741H104.975L104.975 11.7261ZM94.3354 24.0523C94.3354 24.263 94.3141 24.5414 94.27 24.8891C94.2267 25.2383 94.1089 25.5809 93.9174 25.9205C93.7255 26.26 93.4283 26.5528 93.0286 26.7954C92.628 27.04 92.0616 27.1618 91.3288 27.1618C91.0333 27.1618 90.7453 27.1357 90.4665 27.0824C90.1872 27.031 89.9439 26.9388 89.7347 26.8086C89.5259 26.6781 89.3598 26.4995 89.2376 26.273C89.1165 26.0468 89.0547 25.7692 89.0547 25.4384C89.0547 25.0904 89.1165 24.8012 89.2376 24.576C89.3598 24.3507 89.5212 24.1627 89.722 24.0143C89.9215 23.8664 90.1572 23.7491 90.4273 23.6612C90.6973 23.5744 90.9713 23.5049 91.251 23.4526C91.5465 23.4014 91.8436 23.3565 92.139 23.3219C92.4365 23.2879 92.7193 23.2431 92.9889 23.1917C93.2598 23.1396 93.5117 23.0734 93.7476 22.995C93.9828 22.9166 94.1782 22.8092 94.3354 22.6692L94.3354 24.0523ZM98.0471 26.2731V19.2483C98.0471 18.4287 97.865 17.7721 97.4978 17.2766C97.1326 16.7799 96.6618 16.3929 96.0874 16.1142C95.5114 15.8358 94.8749 15.6482 94.1782 15.5527C93.4815 15.457 92.7927 15.4093 92.1136 15.4093C91.3647 15.4093 90.6188 15.4827 89.8793 15.6311C89.1368 15.779 88.4716 16.0276 87.8787 16.375C87.286 16.7233 86.7967 17.1853 86.4155 17.7593C86.0308 18.3338 85.8132 19.0565 85.7612 19.9274H89.4727C89.5425 19.1956 89.7875 18.6729 90.2059 18.3599C90.6239 18.0463 91.1983 17.8904 91.9311 17.8904C92.2616 17.8904 92.5706 17.9122 92.8588 17.9554C93.1457 17.9994 93.3988 18.0852 93.6169 18.2165C93.835 18.347 94.0092 18.5293 94.1393 18.7651C94.27 18.9999 94.3354 19.3184 94.3354 19.7179C94.3528 20.1021 94.239 20.392 93.9961 20.5926C93.7513 20.7939 93.4208 20.9467 93.0024 21.0498C92.584 21.1552 92.1046 21.2338 91.5641 21.2844C91.0236 21.3377 90.4751 21.4087 89.9181 21.4945C89.3598 21.5819 88.8062 21.6992 88.2585 21.8472C87.7096 21.9943 87.2202 22.2175 86.7938 22.5122C86.3664 22.8097 86.0182 23.2052 85.7472 23.7017C85.4777 24.1982 85.3429 24.8299 85.3429 25.595C85.3429 26.2914 85.4603 26.8919 85.6956 27.3964C85.9307 27.9028 86.2573 28.319 86.6761 28.6503C87.0947 28.9812 87.5822 29.2253 88.1399 29.3825C88.6968 29.5387 89.2984 29.6173 89.9439 29.6173C90.7803 29.6173 91.5997 29.495 92.4 29.2524C93.2021 29.0068 93.9 28.5818 94.4926 27.9714C94.5099 28.1977 94.5403 28.4205 94.5833 28.6376C94.6269 28.8543 94.684 29.0689 94.7538 29.2771H98.5184C98.3443 29 98.2214 28.5818 98.1525 28.0236C98.0817 27.4668 98.0471 26.8845 98.0471 26.2734L98.0471 26.2731ZM82.7548 16.9357C82.3894 16.4567 81.888 16.083 81.2528 15.8124C80.6159 15.5439 79.8012 15.4091 78.8083 15.4091C78.1111 15.4091 77.3968 15.5869 76.664 15.9445C75.9325 16.3005 75.331 16.8713 74.8608 17.6553H74.7823V10.6289H71.0702V29.2767H74.7823V22.199C74.7823 20.8237 75.0086 19.8362 75.4621 19.2344C75.9147 18.6344 76.6467 18.3337 77.658 18.3337C78.5464 18.3337 79.1652 18.6078 79.5139 19.157C79.8625 19.7049 80.0366 20.5368 80.0366 21.6506V29.277H83.7489V20.9717C83.7489 20.1365 83.6741 19.3751 83.5265 18.6859C83.3783 17.9993 83.1212 17.4155 82.7548 16.936L82.7548 16.9357ZM63.1498 23.4793H63.0982L59.9091 10.6292H56.0663L52.8244 23.3227H52.7724L49.8184 10.6292H45.7148L50.6552 29.277H54.812L57.922 16.5836H57.9744L61.1374 29.277H65.2155L70.2347 10.6292H66.2092L63.1498 23.4793Z" fill="white"/>
<path d="M11.6224 33.1526L12.204 33.497C14.6479 34.9456 17.4498 35.7117 20.307 35.7133H20.3133C29.0883 35.7133 36.23 28.5815 36.2333 19.8162C36.2347 15.5682 34.5804 11.5743 31.5746 8.56932C28.5686 5.56484 24.572 3.90907 20.319 3.90731C11.5374 3.90731 4.39559 11.038 4.39228 19.8032C4.39112 22.8069 5.23234 25.7322 6.82623 28.2629L7.20507 28.8645L5.59639 34.7306L11.6224 33.1526ZM0.997803 39.2746L3.71516 29.3639C2.03906 26.4633 1.15731 23.173 1.15869 19.8023C1.16278 9.25689 9.75478 0.67749 20.3137 0.67749C25.4373 0.679696 30.2465 2.67143 33.8629 6.28661C37.4789 9.90174 39.4698 14.7072 39.4681 19.8178C39.4636 30.3627 30.8698 38.9437 20.3137 38.9437C20.3129 38.9437 20.3141 38.9437 20.3137 38.9437H20.3055C17.0998 38.9426 13.9499 38.1394 11.1523 36.6154L0.997803 39.2746Z" fill="white"/>
<path d="M1.15821 19.8072C1.15705 23.1778 2.03879 26.4685 3.71489 29.3688L0.997314 39.2789L11.1515 36.6196C13.9493 38.1435 17.099 38.9467 20.3047 38.948H20.3129C30.869 38.948 39.4629 30.3669 39.4673 19.822C39.4691 14.7112 37.4782 9.90585 33.8621 6.29089C30.2454 2.67592 25.4366 0.683969 20.3129 0.681763C9.75452 0.681763 1.1623 9.26116 1.15788 19.8066L1.15821 19.8072ZM7.20479 28.8691L6.82575 28.2678C5.23186 25.7367 4.39064 22.8114 4.3918 19.808C4.39528 11.0433 11.5369 3.91212 20.3185 3.91212C24.5711 3.91378 28.5678 5.56971 31.5742 8.57413C34.5802 11.5788 36.2342 15.573 36.2331 19.8205C36.2292 28.5858 29.0874 35.7175 20.3125 35.7175H20.3062C17.449 35.7159 14.6469 34.9498 12.2032 33.5014L11.6216 33.157L5.59567 34.735L7.20479 28.8691ZM20.3129 38.948H20.3131H20.3129C20.3127 38.948 20.3125 38.948 20.3129 38.948Z" fill="white"/>
<path fill-rule="evenodd" clip-rule="evenodd" d="M15.5259 11.8102C15.1673 11.0141 14.79 10.9981 14.449 10.9841C14.1699 10.9723 13.8506 10.973 13.5318 10.973C13.2125 10.973 12.694 11.0927 12.2556 11.5711C11.8168 12.0495 10.5803 13.2059 10.5803 15.5578C10.5803 17.9099 12.2956 20.1826 12.5345 20.5019C12.7739 20.8205 15.8456 25.8014 20.7099 27.7175C24.7529 29.3099 25.5756 28.9931 26.4531 28.9133C27.3306 28.8338 29.2848 27.7573 29.6835 26.641C30.0824 25.5249 30.0824 24.5681 29.9628 24.3683C29.8432 24.1691 29.524 24.0494 29.0454 23.8105C28.5666 23.5714 26.2137 22.4148 25.7751 22.2553C25.3363 22.096 25.0172 22.0164 24.6979 22.495C24.3789 22.973 23.4623 24.0494 23.183 24.3683C22.9038 24.6878 22.6245 24.7277 22.146 24.4885C21.6672 24.2487 20.1257 23.7444 18.2971 22.116C16.8743 20.8489 15.9138 19.2842 15.6345 18.8055C15.3554 18.3275 15.6047 18.0686 15.8447 17.8302C16.0597 17.616 16.3234 17.2721 16.5628 16.9931C16.8016 16.7139 16.8813 16.5147 17.0408 16.1958C17.2005 15.8767 17.1207 15.5976 17.0011 15.3584C16.8813 15.1193 15.9512 12.7553 15.5256 11.81" fill="white"/>
</svg>
